<?xml version="1.0" encoding="utf-8"?>
<!-- Generator: Adobe Illustrator 16.0.0, SVG Export Plug-In . SVG Version: 6.00 Build 0)  -->
<!DOCTYPE svg PUBLIC "-//W3C//DTD SVG 1.1//EN" "http://www.w3.org/Graphics/SVG/1.1/DTD/svg11.dtd">
<svg version="1.1" id="Calque_1" xmlns="http://www.w3.org/2000/svg" xmlns:xlink="http://www.w3.org/1999/xlink" x="0px" y="0px"
	 width="1152.931px" height="265.17px" viewBox="0 0 1152.931 265.17" enable-background="new 0 0 1152.931 265.17"
	 xml:space="preserve">
<path fill="#00618C" d="M175.537,143.749c-4.167-5.714-7.729-6.311-10.889-6.522l-128.326,0.078
	c4.978,5.452,2.281,17.524,2.192,18.026c-1.409,5.132-28.085,102.615-30.334,105.6c-2.185,2.92-7.871,4.076-8.179,4.149h62.109
	l4.416-24.811c3.564,0.016,71.931,0.021,75.206,0.021c14.9,0,19.298-15.439,19.523-15.781c0.863-3.179,17.479-63.412,17.718-67.934
	C179.296,150.616,177.342,146.102,175.537,143.749z M122.572,174.985l-9.319,30.861c0,0-0.898,1.865-3.683,1.865H76.436
	l8.631-35.137l34.89-0.051C123.042,172.524,123.067,173.684,122.572,174.985z"/>
<path fill="#00618C" d="M331.171,144.909c-4.71-5.958-13.82-7.618-14.278-7.683l-96.972,0.182
	c-19.783,0-24.836,20.154-25.021,20.587c-0.969,3.676-19.364,73.351-21.33,79.242c-1.955,5.907-3.513,14.251-2.093,18.266
	c1.892,5.17,8.884,9.648,11.896,9.667c2.988,0.017,101.035-0.121,106.722-0.089c7.401,0,12.582-4.197,16.702-7.858
	c4.117-3.674,7.595-15.141,7.768-15.744c1.018-3.921,20.512-78.043,21.396-82.693C336.821,154.049,334.328,148.874,331.171,144.909z
	 M280.08,175.213c-0.559,1.964-13.889,51.551-14.603,54.166c-0.069,0.147-1.101,2.715-3.021,2.708
	c-1.904-0.027-31.338,0.018-32.875,0.022c-0.102,0-1.889-0.005-1.345-1.69c0.546-1.729,13.931-53.179,14.645-55.888
	c0.05-0.11,0.785-2.008,2.178-1.998l33.942-0.01C279.597,172.317,280.638,173.222,280.08,175.213z"/>
<path fill="#00618C" d="M465.257,137.227c6.769,0.065,3.094,9.388,1.674,12.148c-1.669,3.377-25.136,39.317-26.437,41.245
	l-2.917-53.393h-83.226c9.526,0.065,5.171,15.476,4.927,16.221c-1.248,4.763-25.004,95.521-27.276,101.942
	c-2.229,6.397-10.53,9.589-10.896,9.69h47.748l20.586-79.157c0.129,3.089,2.961,61.612,2.673,67.798
	c-0.375,7.411-4.655,11.226-4.846,11.359h46.967l51.436-80.353c-0.762,3.248-15.271,64.998-18.33,72.112
	c-3.05,7.154-9.264,8.208-9.589,8.24l55.746-0.073l34.768-127.781H465.257z"/>
<linearGradient id="SVGID_1_" gradientUnits="userSpaceOnUse" x1="699.479" y1="168.1802" x2="910.8607" y2="54.3591">
	<stop  offset="0.2294" style="stop-color:#FFED00"/>
	<stop  offset="0.3468" style="stop-color:#FFE400"/>
	<stop  offset="0.5764" style="stop-color:#FFD600"/>
	<stop  offset="0.7978" style="stop-color:#FFCD00"/>
	<stop  offset="1" style="stop-color:#FECA00"/>
</linearGradient>
<path fill="url(#SVGID_1_)" d="M930.396,64.716L801.365,89.322l-10.301,1.756L686.125,195.397
	c4.188-2.549,83.69-50.921,115.807-67.443c32.161-16.556,86.558-42.31,128.413-58.311c4.13-1.58,8.433-3.209,12.795-4.878
	C943.28,64.723,930.396,64.716,930.396,64.716z"/>
<linearGradient id="SVGID_2_" gradientUnits="userSpaceOnUse" x1="820.7759" y1="65.7432" x2="798.3857" y2="88.1333">
	<stop  offset="0.2294" style="stop-color:#FFED00"/>
	<stop  offset="0.3468" style="stop-color:#FFE400"/>
	<stop  offset="0.5764" style="stop-color:#FFD600"/>
	<stop  offset="0.7978" style="stop-color:#FFCD00"/>
	<stop  offset="1" style="stop-color:#FECA00"/>
</linearGradient>
<polygon fill="url(#SVGID_2_)" points="792.25,89.905 815.374,66.926 823.921,66.975 801.365,89.322 791.064,91.079 "/>
<path fill="#FFED00" d="M1124.69,0.302c-52.283-0.304-166.054-0.14-247.417,5.113c-111.711,7.291-146.408,8.553-230.979,18.934
	c-84.65,10.358-205.054,24.926-256.671,37.427l540.774,2.94c0,0-50.929,16.781-112.475,47.493
	c-60.222,30.06-131.797,83.188-131.797,83.188c4.188-2.549,83.69-50.921,115.807-67.443c32.161-16.556,86.558-42.31,128.413-58.311
	c7.83-3.009,16.166-6.187,24.843-9.414c0.136-0.063,0.281-0.105,0.431-0.161c1.235-0.47,2.495-0.939,3.75-1.414
	c0.307-0.108,0.592-0.232,0.902-0.34c1.114-0.417,2.24-0.82,3.378-1.253c0.34-0.122,0.692-0.249,1.054-0.398
	c1.066-0.384,2.132-0.792,3.228-1.188c0.383-0.143,0.797-0.302,1.199-0.451c1.034-0.387,2.089-0.776,3.139-1.167
	c0.41-0.154,0.815-0.299,1.225-0.46c1.08-0.378,2.176-0.79,3.253-1.165c0.382-0.156,0.758-0.299,1.104-0.435
	c1.189-0.424,2.35-0.845,3.551-1.285c0.269-0.102,0.558-0.207,0.811-0.322c1.437-0.507,2.843-1.002,4.293-1.542
	c0.025,0,0.072-0.017,0.113-0.044c3-1.073,5.981-2.158,8.967-3.203c0.222-0.099,0.475-0.173,0.684-0.26
	c1.243-0.437,2.445-0.881,3.668-1.305c0.389-0.131,0.758-0.263,1.135-0.389c1.08-0.392,2.159-0.771,3.226-1.144
	c0.454-0.166,0.887-0.322,1.322-0.474c1.008-0.343,2.019-0.707,3.059-1.062c0.431-0.156,0.892-0.313,1.363-0.493
	c0.989-0.327,1.989-0.679,3-1.018c0.455-0.156,0.901-0.315,1.355-0.46c1.02-0.371,2.023-0.695,3.037-1.05
	c0.433-0.14,0.863-0.288,1.279-0.433c1.062-0.368,2.106-0.707,3.113-1.054c0.402-0.147,0.808-0.279,1.177-0.41
	c1.198-0.396,2.396-0.794,3.563-1.188c0.218-0.073,0.421-0.142,0.634-0.214c2.854-0.946,5.645-1.885,8.404-2.751
	c0.297-0.113,0.617-0.2,0.924-0.294c1.033-0.338,2.085-0.684,3.105-1.013c0.438-0.11,0.865-0.265,1.282-0.394
	c0.921-0.292,1.81-0.573,2.7-0.852c0.495-0.164,0.951-0.311,1.43-0.451c0.829-0.267,1.667-0.5,2.498-0.765
	c0.483-0.154,0.983-0.331,1.471-0.453c0.78-0.244,1.582-0.488,2.369-0.719c0.507-0.151,1.002-0.303,1.494-0.437
	c0.79-0.251,1.54-0.483,2.31-0.709c0.488-0.138,0.974-0.274,1.455-0.405c0.775-0.237,1.533-0.463,2.283-0.672
	c0.464-0.124,0.939-0.278,1.372-0.38c0.837-0.228,1.643-0.476,2.438-0.681c0.373-0.12,0.765-0.223,1.142-0.318
	c1.16-0.348,2.324-0.649,3.446-0.953c38.004-10.107,76.022-21.71,85.263-21.657C1155.056,0.569,1144.116,0.406,1124.69,0.302z"/>
<defs>
	<filter id="Adobe_OpacityMaskFilter" filterUnits="userSpaceOnUse" x="408.974" y="0" width="708.208" height="64.979">
		<feColorMatrix  type="matrix" values="1 0 0 0 0  0 1 0 0 0  0 0 1 0 0  0 0 0 1 0"/>
	</filter>
</defs>
<mask maskUnits="userSpaceOnUse" x="408.974" y="0" width="708.208" height="64.979" id="SVGID_3_">
	<g filter="url(#Adobe_OpacityMaskFilter)">
		<path fill="#FFFFFF" d="M1124.69,0.302c-52.283-0.304-166.054-0.14-247.417,5.113c-111.711,7.291-146.408,8.553-230.979,18.934
			c-84.65,10.358-205.054,24.926-256.671,37.427l540.774,2.94c0,0-50.929,16.781-112.475,47.493
			c-60.222,30.06-131.797,83.188-131.797,83.188c4.188-2.549,83.69-50.921,115.807-67.443
			c32.161-16.556,86.558-42.31,128.413-58.311c7.83-3.009,16.166-6.187,24.843-9.414c0.136-0.063,0.281-0.105,0.431-0.161
			c1.235-0.47,2.495-0.939,3.75-1.414c0.307-0.108,0.592-0.232,0.902-0.34c1.114-0.417,2.24-0.82,3.378-1.253
			c0.34-0.122,0.692-0.249,1.054-0.398c1.066-0.384,2.132-0.792,3.228-1.188c0.383-0.143,0.797-0.302,1.199-0.451
			c1.034-0.387,2.089-0.776,3.139-1.167c0.41-0.154,0.815-0.299,1.225-0.46c1.08-0.378,2.176-0.79,3.253-1.165
			c0.382-0.156,0.758-0.299,1.104-0.435c1.189-0.424,2.35-0.845,3.551-1.285c0.269-0.102,0.558-0.207,0.811-0.322
			c1.437-0.507,2.843-1.002,4.293-1.542c0.025,0,0.072-0.017,0.113-0.044c3-1.073,5.981-2.158,8.967-3.203
			c0.222-0.099,0.475-0.173,0.684-0.26c1.243-0.437,2.445-0.881,3.668-1.305c0.389-0.131,0.758-0.263,1.135-0.389
			c1.08-0.392,2.159-0.771,3.226-1.144c0.454-0.166,0.887-0.322,1.322-0.474c1.008-0.343,2.019-0.707,3.059-1.062
			c0.431-0.156,0.892-0.313,1.363-0.493c0.989-0.327,1.989-0.679,3-1.018c0.455-0.156,0.901-0.315,1.355-0.46
			c1.02-0.371,2.023-0.695,3.037-1.05c0.433-0.14,0.863-0.288,1.279-0.433c1.062-0.368,2.106-0.707,3.113-1.054
			c0.402-0.147,0.808-0.279,1.177-0.41c1.198-0.396,2.396-0.794,3.563-1.188c0.218-0.073,0.421-0.142,0.634-0.214
			c2.854-0.946,5.645-1.885,8.404-2.751c0.297-0.113,0.617-0.2,0.924-0.294c1.033-0.338,2.085-0.684,3.105-1.013
			c0.438-0.11,0.865-0.265,1.282-0.394c0.921-0.292,1.81-0.573,2.7-0.852c0.495-0.164,0.951-0.311,1.43-0.451
			c0.829-0.267,1.667-0.5,2.498-0.765c0.483-0.154,0.983-0.331,1.471-0.453c0.78-0.244,1.582-0.488,2.369-0.719
			c0.507-0.151,1.002-0.303,1.494-0.437c0.79-0.251,1.54-0.483,2.31-0.709c0.488-0.138,0.974-0.274,1.455-0.405
			c0.775-0.237,1.533-0.463,2.283-0.672c0.464-0.124,0.939-0.278,1.372-0.38c0.837-0.228,1.643-0.476,2.438-0.681
			c0.373-0.12,0.765-0.223,1.142-0.318c1.16-0.348,2.324-0.649,3.446-0.953c38.004-10.107,76.022-21.71,85.263-21.657
			C1155.056,0.569,1144.116,0.406,1124.69,0.302z"/>
	</g>
</mask>
<radialGradient id="SVGID_4_" cx="-1059.436" cy="-4097.6187" r="120.7632" gradientTransform="matrix(2.9324 -0.2137 0.0119 0.1634 3918.5286 475.6472)" gradientUnits="userSpaceOnUse">
	<stop  offset="0" style="stop-color:#FFFFFF"/>
	<stop  offset="1" style="stop-color:#FFFFFF;stop-opacity:0"/>
</radialGradient>
<path opacity="0.4" mask="url(#SVGID_3_)" fill="url(#SVGID_4_)" d="M1117.179,6.679c0.824,10.899-157.101,31.276-352.65,45.552
	c-195.571,14.244-354.737,16.968-355.552,6.062c-0.773-10.887,157.121-31.285,352.679-45.531
	C957.227-1.486,1116.414-4.224,1117.179,6.679z"/>
<defs>
	<filter id="Adobe_OpacityMaskFilter_1_" filterUnits="userSpaceOnUse" x="445.595" y="22.363" width="636.454" height="58.08">
		<feColorMatrix  type="matrix" values="1 0 0 0 0  0 1 0 0 0  0 0 1 0 0  0 0 0 1 0"/>
	</filter>
</defs>
<mask maskUnits="userSpaceOnUse" x="445.595" y="22.363" width="636.454" height="58.08" id="SVGID_5_">
	<g filter="url(#Adobe_OpacityMaskFilter_1_)">
		<path fill="#FFFFFF" d="M943.167,64.765c40.112-15.207,89.852-33.44,124.156-42.566c38.004-10.107,76.022-21.71,85.263-21.657
			c2.471,0.027-8.47-0.136-27.896-0.24c-52.283-0.304-166.054-0.14-247.417,5.113c-111.711,7.291-146.408,8.553-230.979,18.934
			c-84.65,10.358-205.054,24.926-256.671,37.427l540.774,2.94"/>
	</g>
</mask>
<radialGradient id="SVGID_6_" cx="598.8472" cy="-255.522" r="58.9409" gradientTransform="matrix(5.3988 -0.3457 0.0225 0.351 -2463.4858 348.1146)" gradientUnits="userSpaceOnUse">
	<stop  offset="0" style="stop-color:#FECA00"/>
	<stop  offset="1" style="stop-color:#FECA00;stop-opacity:0"/>
</radialGradient>
<path opacity="0.79" mask="url(#SVGID_5_)" fill="url(#SVGID_6_)" d="M1082.046,31.035c0.745,11.423-141.152,29.813-316.912,41.06
	c-175.728,11.253-318.786,11.11-319.536-0.313c-0.73-11.424,141.143-29.807,316.887-41.063
	C938.236,19.457,1081.355,19.597,1082.046,31.035z"/>
<path fill="none" d="M642.608,248.233l0.438,12.096C643.078,257.875,642.643,248.713,642.608,248.233z"/>
<path fill="#00618C" d="M637.946,265.081l59.038-0.026l-23.696-127.828l-80.039,0.272c15.195,0.099-3.239,27.41-4.213,28.849
	c-2.874,4.324-57.62,86.474-61.428,91.599c-3.877,5.127-9.87,7.103-10.135,7.135h48.646l11.05-16.975
	c0,0,49.338-29.391,46.366-29.71l-25.176-2.768l28.623-44.69l7.632,42.352l0,0l0.421,2.339l7.572,32.604
	c0.035,0.48,0.47,9.642,0.438,12.096C643.025,262.543,638.176,264.979,637.946,265.081z"/>
<polygon fill="#FFFFFF" points="634.615,213.29 634.615,213.29 635.036,215.628 "/>
<path fill="#FFFFFF" d="M578.652,253.949"/>
<path fill="#00618C" d="M561.485,215.661h67.031c2.246,0.562,2.916,2.74,2.8,5.11c-0.14,2.829-1.25,6.323-4.958,8.399
	c-12.327,6.902-64.873,33.455-64.873,33.455V215.661z"/>
</svg>